<mxfile host="app.diagrams.net" modified="2023-12-06T06:23:22.108Z" agent="Mozilla/5.0 (Windows NT 10.0; Win64; x64) AppleWebKit/537.36 (KHTML, like Gecko) Chrome/119.0.0.0 Safari/537.36" etag="Dd9iZsKGzpHQngT-IB16" version="22.1.5" type="device">
  <diagram id="2EPvozWvFF_3zaLN8Fbm" name="Page-1">
    <mxGraphModel dx="756" dy="469" grid="1" gridSize="10" guides="1" tooltips="1" connect="1" arrows="1" fold="1" page="1" pageScale="1" pageWidth="850" pageHeight="1100" math="0" shadow="0">
      <root>
        <mxCell id="0" />
        <mxCell id="1" parent="0" />
        <mxCell id="vMq3YWReXSDklAG2kNOv-1" value="User" style="swimlane;fontStyle=1;align=center;verticalAlign=top;childLayout=stackLayout;horizontal=1;startSize=26;horizontalStack=0;resizeParent=1;resizeParentMax=0;resizeLast=0;collapsible=1;marginBottom=0;" parent="1" vertex="1">
          <mxGeometry x="370" y="240" width="160" height="108" as="geometry" />
        </mxCell>
        <mxCell id="vMq3YWReXSDklAG2kNOv-2" value="id: ObjectId&#xa;taskList: ObjectId&#xa;name: String&#xa;username: String&#xa;hashedPassword: String" style="text;strokeColor=none;fillColor=none;align=left;verticalAlign=top;spacingLeft=4;spacingRight=4;overflow=hidden;rotatable=0;points=[[0,0.5],[1,0.5]];portConstraint=eastwest;" parent="vMq3YWReXSDklAG2kNOv-1" vertex="1">
          <mxGeometry y="26" width="160" height="74" as="geometry" />
        </mxCell>
        <mxCell id="vMq3YWReXSDklAG2kNOv-3" value="" style="line;strokeWidth=1;fillColor=none;align=left;verticalAlign=middle;spacingTop=-1;spacingLeft=3;spacingRight=3;rotatable=0;labelPosition=right;points=[];portConstraint=eastwest;strokeColor=inherit;" parent="vMq3YWReXSDklAG2kNOv-1" vertex="1">
          <mxGeometry y="100" width="160" height="8" as="geometry" />
        </mxCell>
        <mxCell id="vMq3YWReXSDklAG2kNOv-5" value="Task" style="swimlane;fontStyle=1;align=center;verticalAlign=top;childLayout=stackLayout;horizontal=1;startSize=26;horizontalStack=0;resizeParent=1;resizeParentMax=0;resizeLast=0;collapsible=1;marginBottom=0;" parent="1" vertex="1">
          <mxGeometry x="630" y="220" width="160" height="148" as="geometry" />
        </mxCell>
        <mxCell id="vMq3YWReXSDklAG2kNOv-6" value="id: ObjectId&#xa;name: String&#xa;description: String&#xa;tags: Array[String]&#xa;date: Date&#xa;duration: Number&#xa;periodic: String" style="text;strokeColor=none;fillColor=none;align=left;verticalAlign=top;spacingLeft=4;spacingRight=4;overflow=hidden;rotatable=0;points=[[0,0.5],[1,0.5]];portConstraint=eastwest;" parent="vMq3YWReXSDklAG2kNOv-5" vertex="1">
          <mxGeometry y="26" width="160" height="114" as="geometry" />
        </mxCell>
        <mxCell id="vMq3YWReXSDklAG2kNOv-7" value="" style="line;strokeWidth=1;fillColor=none;align=left;verticalAlign=middle;spacingTop=-1;spacingLeft=3;spacingRight=3;rotatable=0;labelPosition=right;points=[];portConstraint=eastwest;strokeColor=inherit;" parent="vMq3YWReXSDklAG2kNOv-5" vertex="1">
          <mxGeometry y="140" width="160" height="8" as="geometry" />
        </mxCell>
        <mxCell id="vMq3YWReXSDklAG2kNOv-9" value="Task List" style="swimlane;fontStyle=1;align=center;verticalAlign=top;childLayout=stackLayout;horizontal=1;startSize=26;horizontalStack=0;resizeParent=1;resizeParentMax=0;resizeLast=0;collapsible=1;marginBottom=0;" parent="1" vertex="1">
          <mxGeometry x="640" y="49" width="160" height="110" as="geometry" />
        </mxCell>
        <mxCell id="vMq3YWReXSDklAG2kNOv-10" value="taskList &lt;Task&gt;&#xa;" style="text;strokeColor=none;fillColor=none;align=left;verticalAlign=top;spacingLeft=4;spacingRight=4;overflow=hidden;rotatable=0;points=[[0,0.5],[1,0.5]];portConstraint=eastwest;" parent="vMq3YWReXSDklAG2kNOv-9" vertex="1">
          <mxGeometry y="26" width="160" height="26" as="geometry" />
        </mxCell>
        <mxCell id="vMq3YWReXSDklAG2kNOv-11" value="" style="line;strokeWidth=1;fillColor=none;align=left;verticalAlign=middle;spacingTop=-1;spacingLeft=3;spacingRight=3;rotatable=0;labelPosition=right;points=[];portConstraint=eastwest;strokeColor=inherit;" parent="vMq3YWReXSDklAG2kNOv-9" vertex="1">
          <mxGeometry y="52" width="160" height="8" as="geometry" />
        </mxCell>
        <mxCell id="vMq3YWReXSDklAG2kNOv-12" value="+ addTask(task)&#xa;+ deleteTask(id)&#xa;+ modifyTask(id, task)" style="text;strokeColor=none;fillColor=none;align=left;verticalAlign=top;spacingLeft=4;spacingRight=4;overflow=hidden;rotatable=0;points=[[0,0.5],[1,0.5]];portConstraint=eastwest;" parent="vMq3YWReXSDklAG2kNOv-9" vertex="1">
          <mxGeometry y="60" width="160" height="50" as="geometry" />
        </mxCell>
        <mxCell id="vMq3YWReXSDklAG2kNOv-27" value="" style="endArrow=open;endFill=0;html=1;edgeStyle=orthogonalEdgeStyle;align=left;verticalAlign=top;rounded=0;startArrow=diamondThin;startFill=1;startSize=12;endSize=12;" parent="1" source="vMq3YWReXSDklAG2kNOv-5" target="vMq3YWReXSDklAG2kNOv-12" edge="1">
          <mxGeometry x="0.0526" y="20" relative="1" as="geometry">
            <mxPoint x="660" y="440" as="sourcePoint" />
            <mxPoint x="820" y="440" as="targetPoint" />
            <Array as="points">
              <mxPoint x="720" y="350" />
              <mxPoint x="720" y="350" />
            </Array>
            <mxPoint as="offset" />
          </mxGeometry>
        </mxCell>
        <mxCell id="vMq3YWReXSDklAG2kNOv-28" value="0-n" style="edgeLabel;resizable=0;html=1;align=left;verticalAlign=bottom;" parent="vMq3YWReXSDklAG2kNOv-27" connectable="0" vertex="1">
          <mxGeometry x="-1" relative="1" as="geometry">
            <mxPoint x="-30" as="offset" />
          </mxGeometry>
        </mxCell>
        <mxCell id="vMq3YWReXSDklAG2kNOv-29" value="1" style="edgeLabel;resizable=0;html=1;align=left;verticalAlign=bottom;" parent="vMq3YWReXSDklAG2kNOv-27" connectable="0" vertex="1">
          <mxGeometry x="-1" relative="1" as="geometry">
            <mxPoint x="-20" y="-40" as="offset" />
          </mxGeometry>
        </mxCell>
        <mxCell id="vMq3YWReXSDklAG2kNOv-43" value="1" style="endArrow=open;html=1;endSize=12;startArrow=diamondThin;startSize=14;startFill=1;edgeStyle=orthogonalEdgeStyle;align=left;verticalAlign=bottom;rounded=0;entryX=0;entryY=-0.073;entryDx=0;entryDy=0;entryPerimeter=0;" parent="1" target="vMq3YWReXSDklAG2kNOv-12" edge="1">
          <mxGeometry x="-1" y="3" relative="1" as="geometry">
            <mxPoint x="530" y="294.65" as="sourcePoint" />
            <mxPoint x="710.0799999999999" y="49.00000000000002" as="targetPoint" />
            <Array as="points">
              <mxPoint x="570" y="295" />
              <mxPoint x="570" y="105" />
            </Array>
          </mxGeometry>
        </mxCell>
        <mxCell id="jiv-L7HoirJ6ZphAS45G-1" value="User List" style="swimlane;fontStyle=1;align=center;verticalAlign=top;childLayout=stackLayout;horizontal=1;startSize=26;horizontalStack=0;resizeParent=1;resizeParentMax=0;resizeLast=0;collapsible=1;marginBottom=0;" vertex="1" parent="1">
          <mxGeometry x="370" y="39" width="160" height="130" as="geometry" />
        </mxCell>
        <mxCell id="jiv-L7HoirJ6ZphAS45G-2" value="userList &lt;User&gt;&#xa;" style="text;strokeColor=none;fillColor=none;align=left;verticalAlign=top;spacingLeft=4;spacingRight=4;overflow=hidden;rotatable=0;points=[[0,0.5],[1,0.5]];portConstraint=eastwest;" vertex="1" parent="jiv-L7HoirJ6ZphAS45G-1">
          <mxGeometry y="26" width="160" height="26" as="geometry" />
        </mxCell>
        <mxCell id="jiv-L7HoirJ6ZphAS45G-3" value="" style="line;strokeWidth=1;fillColor=none;align=left;verticalAlign=middle;spacingTop=-1;spacingLeft=3;spacingRight=3;rotatable=0;labelPosition=right;points=[];portConstraint=eastwest;strokeColor=inherit;" vertex="1" parent="jiv-L7HoirJ6ZphAS45G-1">
          <mxGeometry y="52" width="160" height="8" as="geometry" />
        </mxCell>
        <mxCell id="jiv-L7HoirJ6ZphAS45G-4" value="+ getUsers(name)&#xa;+ getUserById(id)&#xa;+ postUser(user)&#xa;+ deleteUserById(id)" style="text;strokeColor=none;fillColor=none;align=left;verticalAlign=top;spacingLeft=4;spacingRight=4;overflow=hidden;rotatable=0;points=[[0,0.5],[1,0.5]];portConstraint=eastwest;" vertex="1" parent="jiv-L7HoirJ6ZphAS45G-1">
          <mxGeometry y="60" width="160" height="70" as="geometry" />
        </mxCell>
        <mxCell id="jiv-L7HoirJ6ZphAS45G-12" value="1" style="edgeLabel;resizable=0;html=1;align=left;verticalAlign=bottom;" connectable="0" vertex="1" parent="1">
          <mxGeometry x="700" y="190" as="geometry">
            <mxPoint x="-74" y="-94" as="offset" />
          </mxGeometry>
        </mxCell>
        <mxCell id="jiv-L7HoirJ6ZphAS45G-22" value="" style="endArrow=open;endFill=0;html=1;edgeStyle=orthogonalEdgeStyle;align=left;verticalAlign=top;rounded=0;startArrow=diamondThin;startFill=1;startSize=12;endSize=12;" edge="1" parent="1" source="vMq3YWReXSDklAG2kNOv-1">
          <mxGeometry width="50" height="50" relative="1" as="geometry">
            <mxPoint x="400" y="210" as="sourcePoint" />
            <mxPoint x="450" y="170" as="targetPoint" />
          </mxGeometry>
        </mxCell>
        <mxCell id="jiv-L7HoirJ6ZphAS45G-23" value="1" style="edgeLabel;resizable=0;html=1;align=left;verticalAlign=bottom;" connectable="0" vertex="1" parent="1">
          <mxGeometry x="700" y="190" as="geometry">
            <mxPoint x="-266" y="-5" as="offset" />
          </mxGeometry>
        </mxCell>
        <mxCell id="jiv-L7HoirJ6ZphAS45G-24" value="0-n" style="edgeLabel;resizable=0;html=1;align=left;verticalAlign=bottom;" connectable="0" vertex="1" parent="1">
          <mxGeometry x="425" y="240" as="geometry" />
        </mxCell>
      </root>
    </mxGraphModel>
  </diagram>
</mxfile>
